# xmcd
#
# Track frame offsets:
#	150
#	9741
#	21828
#	32770
#	46232
#	55736
#	68276
#	80097
#	90610
#	99886
#
# Disc length: 1456 seconds
# Revision: 0
# Processed by: cddbd v1.5.2PL0 Copyright (c) Steve Scherf et al.
# Submitted via: dBpowerAMP V12.0
#
DISCID=6d05ae0a
DTITLE=The Kendalls - Heart of the Matter
DYEAR=1979
DGENRE=
TTITLE0=You'd Make an Angel Wanna Cheat
TTITLE1=Put It Off until Tomorrow
TTITLE2=Gone Away
TTITLE3=Everlasting Love
TTITLE4=I'll Be Hurtin' Either Way
TTITLE5=Heart of the Matter
TTITLE6=I'm Already Blue
TTITLE7=I Take the Chance
TTITLE8=I Don't Drink from the River
TTITLE9=I Don't Do Like That No More
EXTD=
EXTT0=
EXTT1=
EXTT2=
EXTT3=
EXTT4=
EXTT5=
EXTT6=
EXTT7=
EXTT8=
EXTT9=
PLAYORDER=
